<svg width="772" height="668" viewBox="0 0 772 668" fill="none" xmlns="http://www.w3.org/2000/svg">
<path d="M570.672 352.113C472.18 311.54 354.859 347.766 305.613 407.176C356.308 315.887 470.732 289.805 538.807 297.05L570.672 352.113Z" fill="white" fill-opacity="0.5"/>
<path d="M519.977 263.722C433.073 252.13 330.236 331.826 305.613 407.176C318.649 288.356 437.418 223.15 488.113 210.108L519.977 263.722Z" fill="white" fill-opacity="0.5"/>
<path d="M463.49 166.638C373.689 208.659 294.026 312.989 305.614 407.176C262.161 281.111 375.137 162.291 434.522 117.371L463.49 166.638Z" fill="white" fill-opacity="0.5"/>
<path d="M408.45 72.4512C320.098 156.495 252.023 299.948 305.614 407.176C208.57 243.436 283.887 157.944 372.24 10.1432L408.45 72.4512Z" fill="white" fill-opacity="0.5"/>
<path d="M593.846 392.685L653.231 498.464C619.917 434.707 449.006 339.071 304.165 407.176C412.796 326.03 544.6 369.501 593.846 392.685Z" fill="white" fill-opacity="0.5"/>
<path d="M204.225 304.295C220.158 410.074 309.959 492.668 385.276 505.709C280.991 508.607 199.88 421.666 173.809 357.909L204.225 304.295Z" fill="white" fill-opacity="0.5"/>
<path d="M153.531 392.685C188.293 473.831 307.062 523.098 385.276 505.709C275.197 554.976 159.325 483.974 123.114 447.748L153.531 392.685Z" fill="white" fill-opacity="0.5"/>
<path d="M98.4916 489.77C179.602 546.282 309.959 562.221 385.276 505.709C298.372 607.141 139.047 569.467 69.5235 539.037L98.4916 489.77Z" fill="white" fill-opacity="0.5"/>
<path d="M44.9006 585.406C162.221 618.733 320.098 607.141 386.724 505.709C331.685 663.653 204.225 647.714 10.1389 646.265L44.9006 585.406Z" fill="white" fill-opacity="0.5"/>
<path d="M227.4 263.722L285.336 162.291C247.677 223.15 253.471 417.319 385.276 507.158C260.713 453.544 233.193 318.785 227.4 263.722Z" fill="white" fill-opacity="0.5"/>
<path d="M346.169 646.265C430.176 581.059 457.696 460.79 430.176 388.339C483.767 478.178 449.006 591.202 408.45 646.265H346.169Z" fill="white" fill-opacity="0.5"/>
<path d="M447.557 646.265C499.7 576.712 483.767 447.749 430.176 388.339C527.22 459.341 522.874 595.549 509.839 646.265H447.557Z" fill="white" fill-opacity="0.5"/>
<path d="M559.084 646.265C567.775 547.731 517.081 426.013 430.176 388.339C560.533 414.421 606.882 570.916 615.572 644.816L559.084 646.265Z" fill="white" fill-opacity="0.5"/>
<path d="M669.163 646.265C640.195 527.445 551.842 397.033 431.625 389.787C608.33 386.889 656.128 483.974 741.584 646.265H669.163Z" fill="white" fill-opacity="0.5"/>
<path d="M302.717 646.265H185.396C253.471 643.367 421.486 550.629 431.625 389.788C447.557 523.098 347.617 614.386 302.717 646.265Z" fill="white" fill-opacity="0.5"/>
</svg>
