<svg width="16" height="16" viewBox="3 3 10 10" fill="none" xmlns="http://www.w3.org/2000/svg">
<path fill-rule="evenodd" clip-rule="evenodd" d="M15 7.99998C15 8.13259 14.9473 8.25976 14.8536 8.35353C14.7598 8.4473 14.6326 8.49998 14.5 8.49998L2.707 8.49998L5.854 11.646C5.94789 11.7399 6.00063 11.8672 6.00063 12C6.00063 12.1328 5.94789 12.2601 5.854 12.354C5.76011 12.4479 5.63278 12.5006 5.5 12.5006C5.36722 12.5006 5.23989 12.4479 5.146 12.354L1.146 8.35398C1.09944 8.30753 1.06249 8.25236 1.03729 8.19161C1.01208 8.13087 0.999106 8.06575 0.999106 7.99998C0.999106 7.93421 1.01208 7.86909 1.03729 7.80835C1.06249 7.7476 1.09944 7.69242 1.146 7.64598L5.146 3.64598C5.23989 3.55209 5.36722 3.49935 5.5 3.49935C5.63278 3.49935 5.76011 3.55209 5.854 3.64598C5.94789 3.73987 6.00063 3.8672 6.00063 3.99998C6.00063 4.13275 5.94789 4.26009 5.854 4.35398L2.707 7.49998L14.5 7.49998C14.6326 7.49998 14.7598 7.55266 14.8536 7.64643C14.9473 7.74019 15 7.86737 15 7.99998V7.99998Z"/>
</svg>
