<svg width="73" height="73" viewBox="0 0 73 73" fill="none" xmlns="http://www.w3.org/2000/svg">
<path d="M70.5019 19.7552L51.9041 0.430301C51.6394 0.15541 51.2741 0 50.8925 0H23.1739C20.0718 0 17.5481 2.52278 17.5481 5.62357V25.2693H6.31476C3.99388 25.2693 2.10571 27.1569 2.10571 29.4772V50.5422C2.10571 52.8624 3.99388 54.75 6.31476 54.75H17.5481V67.3863C17.5481 70.4816 20.0718 73 23.1739 73H65.2684C68.3705 73 70.8942 70.4831 70.8942 67.3894V20.7287C70.8942 20.3657 70.7535 20.0168 70.5019 19.7552ZM51.2404 3.78987L66.5075 19.6538H51.2404V3.78987ZM6.31476 51.9424C5.54199 51.9424 4.9135 51.3143 4.9135 50.5422V29.4772C4.9135 28.7051 5.54213 28.0769 6.31476 28.0769H44.2237C44.9965 28.0769 45.625 28.7051 45.625 29.4772V50.5422C45.625 51.3143 44.9963 51.9424 44.2237 51.9424H6.31476ZM68.0864 67.3894C68.0864 68.935 66.8222 70.1924 65.2682 70.1924H23.1739C21.62 70.1924 20.3557 68.9337 20.3557 67.3864V54.75H44.2237C46.5446 54.75 48.4328 52.8624 48.4328 50.5422V29.4772C48.4328 27.1569 46.5446 25.2693 44.2237 25.2693H20.3557V5.62357C20.3557 4.07075 21.62 2.80765 23.1739 2.80765H48.4326V21.0576C48.4326 21.833 49.0612 22.4615 49.8364 22.4615H68.0864V67.3894Z" fill="#60BF00"/>
<path d="M18.8889 35.6295C18.4228 35.0235 17.8442 34.63 17.1533 34.4491C16.7036 34.3284 15.7385 34.2681 14.2578 34.2681H10.3506V46.3269H12.7854V41.7781H14.373C15.4753 41.7781 16.317 41.7205 16.8983 41.6053C17.3261 41.5121 17.747 41.3216 18.161 41.0336C18.5751 40.7457 18.9164 40.3495 19.1851 39.8451C19.4539 39.3406 19.5882 38.7181 19.5882 37.9779C19.5881 37.0182 19.355 36.2354 18.8889 35.6295ZM16.8037 38.9485C16.62 39.2173 16.3664 39.4146 16.0427 39.5408C15.7191 39.667 15.0776 39.73 14.1179 39.73H12.7854V36.3081H13.9617C14.8391 36.3081 15.4231 36.3355 15.7137 36.3904C16.1085 36.4617 16.4348 36.6399 16.6925 36.9251C16.9502 37.2102 17.0791 37.5722 17.0791 38.0108C17.0793 38.3672 16.9873 38.6798 16.8037 38.9485Z" fill="#60BF00"/>
<path d="M31.2932 37.5625C31.03 36.792 30.646 36.1409 30.1416 35.6089C29.6371 35.077 29.031 34.7068 28.3237 34.4984C27.7973 34.3448 27.0322 34.2681 26.0288 34.2681H21.5786V46.3269H26.1604C27.0597 46.3269 27.7781 46.242 28.3154 46.0719C29.0339 45.8416 29.6042 45.5208 30.0264 45.1095C30.5857 44.5665 31.0161 43.8565 31.3178 42.9791C31.5646 42.2606 31.688 41.4052 31.688 40.4127C31.688 39.283 31.5564 38.333 31.2932 37.5625ZM28.9241 42.5144C28.7596 43.0546 28.5471 43.4426 28.2866 43.6783C28.0261 43.9141 27.6985 44.0813 27.3037 44.18C27.0021 44.2569 26.5112 44.2952 25.8313 44.2952H24.0134V36.3081H25.1074C26.0999 36.3081 26.7663 36.3465 27.1062 36.4233C27.5613 36.522 27.937 36.7112 28.2332 36.9909C28.5293 37.2707 28.7596 37.6599 28.9241 38.1589C29.0886 38.658 29.1709 39.3736 29.1709 40.3059C29.1709 41.2381 29.0886 41.9742 28.9241 42.5144Z" fill="#60BF00"/>
<path d="M42.0359 36.3081V34.2681H33.769V46.3269H36.2038V41.2024H41.238V39.1624H36.2038V36.3081H42.0359Z" fill="#60BF00"/>
</svg>
