<svg width="23" height="25" viewBox="0 0 23 25" fill="none" xmlns="http://www.w3.org/2000/svg">
<path d="M19.5566 18.2617C19.287 18.2617 19.0683 18.4803 19.0683 18.75V23.5351C19.0683 23.8044 18.8493 24.0234 18.5801 24.0234H1.78443C1.51519 24.0234 1.29614 23.8044 1.29614 23.5351V14.6973C1.29614 14.4276 1.07754 14.209 0.807862 14.209C0.538184 14.209 0.31958 14.4276 0.31958 14.6973V23.5351C0.31958 24.3429 0.97671 25 1.78443 25H18.5801C19.3878 25 20.0449 24.3429 20.0449 23.5351V18.75C20.0449 18.4803 19.8263 18.2617 19.5566 18.2617Z" fill="#12528D"/>
<path d="M21.4734 9.1381C21.054 8.71867 20.5657 8.40964 20.045 8.20881V5.27291C20.0446 5.27286 20.0442 5.27281 20.0438 5.27281C20.0437 5.14581 19.9953 5.02101 19.9019 4.92765L15.1174 0.143067C15.024 0.0497071 14.8991 0.00131836 14.7721 0.00126953C14.7721 0.00083008 14.7721 0.000439454 14.7721 0H1.78443C0.97671 0 0.31958 0.65713 0.31958 1.46485V10.5632C0.31958 10.8328 0.538184 11.0514 0.807862 11.0514C1.07754 11.0514 1.29614 10.8328 1.29614 10.5632V1.4648C1.29614 1.19556 1.51519 0.976516 1.78443 0.976516H14.2838V4.29635C14.2838 5.10406 14.9409 5.76119 15.7487 5.76119H19.0683V7.96403C17.8475 7.81222 16.5715 8.2028 15.6362 9.1381L8.67712 16.0971C8.48644 16.2878 8.48644 16.597 8.67712 16.7877C8.86779 16.9784 9.17697 16.9784 9.36769 16.7877L16.3267 9.82863C17.5553 8.60011 19.5543 8.60007 20.7829 9.82863C22.0115 11.0572 22.0115 13.0562 20.7829 14.2847L14.2562 20.8114C13.4901 21.5775 12.2436 21.5775 11.4775 20.8114C11.1064 20.4403 10.902 19.9469 10.902 19.4221C10.902 18.8973 11.1064 18.4038 11.4775 18.0327L18.0359 11.4743C18.1805 11.3298 18.3726 11.2501 18.577 11.2501C18.7814 11.2501 18.9736 11.3297 19.1182 11.4743C19.2627 11.6188 19.3423 11.811 19.3423 12.0154C19.3423 12.2198 19.2627 12.412 19.1181 12.5565L13.2073 18.4673C13.0166 18.6579 13.0166 18.9671 13.2073 19.1579C13.398 19.3485 13.7072 19.3485 13.8979 19.1579L19.8086 13.247C20.1376 12.9181 20.3188 12.4806 20.3188 12.0154C20.3188 11.5502 20.1376 11.1127 19.8087 10.7838C19.4797 10.4548 19.0423 10.2736 18.577 10.2736C18.1118 10.2736 17.6744 10.4548 17.3454 10.7837L10.787 17.3421C9.64016 18.489 9.64016 20.3551 10.787 21.5019C11.3605 22.0754 12.1135 22.3622 12.8669 22.3621C13.62 22.362 14.3734 22.0753 14.9468 21.5019L21.4734 14.9753C23.0827 13.366 23.0827 10.7474 21.4734 9.1381ZM15.7487 4.78463C15.4794 4.78463 15.2604 4.56559 15.2604 4.29635V1.66714L18.3778 4.78463H15.7487Z" fill="#12528D"/>
<path d="M1.15332 12.3115C1.0625 12.2207 0.936525 12.1685 0.808106 12.1685C0.6792 12.1685 0.553711 12.2207 0.462403 12.3115C0.371582 12.4023 0.319824 12.5283 0.319824 12.6567C0.319824 12.7851 0.371582 12.9111 0.462403 13.0019C0.553711 13.0932 0.6792 13.145 0.808106 13.145C0.936525 13.145 1.0625 13.0932 1.15332 13.0019C1.24414 12.9111 1.29639 12.7851 1.29639 12.6567C1.29639 12.5283 1.24414 12.4023 1.15332 12.3115Z" fill="#12528D"/>
<path d="M7.93314 17.791L7.92347 17.7612C7.84022 17.5047 7.56478 17.3642 7.30828 17.4474C7.05179 17.5307 6.91131 17.8061 6.99456 18.0626L7.00423 18.0925C7.07122 18.2989 7.26268 18.4302 7.46859 18.4302C7.51854 18.4302 7.56937 18.4224 7.61942 18.4062C7.87591 18.3229 8.01639 18.0475 7.93314 17.791Z" fill="#12528D"/>
</svg>
