<svg width="16" height="16" viewBox="0 0 16 16" fill="none" xmlns="http://www.w3.org/2000/svg">
<path d="M8.00004 0C5.42002 0 3.32094 2.099 3.32094 4.6791V7.35145C3.32094 7.38182 3.28347 7.43299 3.25403 7.44277C3.001 7.52715 2.7955 7.60027 2.60739 7.67279C2.38306 7.75927 2.21387 8.00787 2.21387 8.25109V14.3914C2.21387 14.633 2.38197 14.8818 2.60488 14.9701C4.32956 15.6535 6.14475 16 8.00001 16C9.85527 16 11.6705 15.6535 13.3952 14.97C13.6181 14.8817 13.7861 14.633 13.7861 14.3914V8.25109C13.7861 8.00787 13.6169 7.75927 13.3925 7.6727C13.2043 7.60019 12.9988 7.52707 12.746 7.44269C12.7166 7.4329 12.6791 7.38171 12.6791 7.35134V4.67901C12.679 2.099 10.5801 0 8.00004 0ZM6.72557 10.1212C6.72557 9.41685 7.29617 8.84686 7.99996 8.84686C8.7037 8.84686 9.27429 9.4168 9.27429 10.1212C9.27429 10.5879 9.01109 10.9787 8.63711 11.2002V13.3071C8.63711 13.6594 8.35213 13.9443 7.99993 13.9443C7.64771 13.9443 7.36275 13.6594 7.36275 13.3071V11.2002C6.9888 10.9787 6.72557 10.5879 6.72557 10.1212ZM11.0702 4.67901V6.98477C10.0634 6.76812 9.03047 6.6584 8.00045 6.65832C6.97089 6.65832 5.93819 6.76806 4.92982 6.98452V4.67901C4.92982 2.98609 6.30706 1.60887 7.99996 1.60887C9.69283 1.60885 11.0702 2.98609 11.0702 4.67901Z" fill="white"/>
</svg>
