<svg width="20" height="20" viewBox="0 0 20 20" fill="none" xmlns="http://www.w3.org/2000/svg">
<path d="M14.8902 12.0107L13.0237 11.4748C12.7784 11.4043 12.5141 11.474 12.3353 11.6561L11.8789 12.1212C11.6864 12.3172 11.3944 12.3803 11.1397 12.2772C10.2568 11.9199 8.39946 10.2685 7.92514 9.4425C7.7883 9.20423 7.81093 8.90634 7.97895 8.68893L8.37743 8.17341C8.53355 7.97142 8.5665 7.70016 8.46325 7.46667L7.678 5.69064C7.48991 5.26526 6.94631 5.14143 6.59118 5.44178C6.07026 5.88236 5.45219 6.55187 5.37705 7.29359C5.24458 8.6013 5.80541 10.2498 7.92621 12.2292C10.3763 14.516 12.3383 14.8181 13.6158 14.5086C14.3404 14.3331 14.9194 13.6296 15.2849 13.0535C15.534 12.6607 15.3373 12.1391 14.8902 12.0107Z" fill="white"/>
<path d="M9.7439 0.297369C4.61283 0.54168 0.563703 4.81486 0.579268 9.95172C0.584008 11.5163 0.96172 12.993 1.62803 14.2978L0.60501 19.2637C0.54967 19.5323 0.791938 19.7675 1.05879 19.7043L5.92472 18.5515C7.17486 19.1742 8.57903 19.5339 10.0651 19.5565C15.3095 19.6366 19.6825 15.4724 19.846 10.23C20.0212 4.61037 15.3831 0.0288023 9.7439 0.297369ZM15.55 15.2569C14.125 16.682 12.2303 17.4667 10.215 17.4667C9.03498 17.4667 7.90524 17.202 6.85704 16.6799L6.1794 16.3423L3.19607 17.0491L3.82405 14.0007L3.4902 13.3469C2.94605 12.2813 2.67014 11.1289 2.67014 9.92189C2.67014 7.90658 3.45493 6.01193 4.87996 4.58685C6.29226 3.17456 8.21785 2.37699 10.2151 2.37699C12.2304 2.37704 14.125 3.16183 15.5501 4.58681C16.9751 6.01184 17.7599 7.90648 17.7599 9.92175C17.7599 11.9191 16.9623 13.8447 15.55 15.2569Z" fill="white"/>
</svg>
